<?xml version="1.0" encoding="iso-8859-1"?>
<!-- Generator: Adobe Illustrator 19.0.0, SVG Export Plug-In . SVG Version: 6.00 Build 0)  -->
<svg version="1.1" id="Layer_1" xmlns="http://www.w3.org/2000/svg" xmlns:xlink="http://www.w3.org/1999/xlink" x="0px" y="0px"
	 viewBox="0 0 512 512" style="enable-background:new 0 0 512 512;" xml:space="preserve">
<path style="fill:#BFC1C2;" d="M475.203,126.359L475.203,126.359c20.323,0,36.797,16.475,36.797,36.797v185.688
	c0,20.323-16.475,36.797-36.797,36.797l0,0c-19.08,0-34.548-15.468-34.548-34.548V160.907
	C440.655,141.827,456.123,126.359,475.203,126.359z"/>
<g>
	<path style="fill:#D1D3D4;" d="M36.797,385.641L36.797,385.641C16.475,385.641,0,369.167,0,348.844V163.156
		c0-20.323,16.475-36.797,36.797-36.797l0,0c19.08,0,34.548,15.468,34.548,34.548v190.186
		C71.345,370.173,55.879,385.641,36.797,385.641z"/>
	<polygon style="fill:#D1D3D4;" points="256.001,212.773 139.961,212.773 139.961,299.227 256.001,299.227 372.039,299.227 
		372.039,212.773 	"/>
</g>
<g>
	<rect x="256.004" y="212.769" style="fill:#BFC1C2;" width="116.035" height="86.455"/>
	<path style="fill:#BFC1C2;" d="M105.654,385.641L105.654,385.641c-27.422,0-49.651-22.23-49.651-49.65V176.01
		c0-27.422,22.23-49.65,49.65-49.65l0,0c27.422,0,49.65,22.23,49.65,49.65v159.982C155.304,363.412,133.074,385.641,105.654,385.641
		z"/>
</g>
<path style="fill:#A7A9AC;" d="M406.347,126.359L406.347,126.359c27.422,0,49.65,22.23,49.65,49.65V335.99
	c0,27.422-22.23,49.65-49.65,49.65l0,0c-27.422,0-49.651-22.23-49.651-49.65V176.01
	C356.696,148.588,378.926,126.359,406.347,126.359z"/>
<g>
</g>
<g>
</g>
<g>
</g>
<g>
</g>
<g>
</g>
<g>
</g>
<g>
</g>
<g>
</g>
<g>
</g>
<g>
</g>
<g>
</g>
<g>
</g>
<g>
</g>
<g>
</g>
<g>
</g>
</svg>
